HIERARCHY
ROOT Hips
{
	OFFSET -0.001795 -0.223333 0.028219
	CHANNELS 6 Xposition Yposition Zposition Zrotation Yrotation Xrotation 
	JOINT LeftUpLeg
	{
		OFFSET 0.069520 -0.091406 -0.006815
		CHANNELS 3 Zrotation Yrotation Xrotation
		JOINT LeftLeg
		{
			OFFSET 0.034277 -0.375199 -0.004496
			CHANNELS 3 Zrotation Yrotation Xrotation
			JOINT LeftFoot
			{
				OFFSET -0.013596 -0.397961 -0.043693
				CHANNELS 3 Zrotation Yrotation Xrotation
				JOINT LeftToe
				{
					OFFSET 0.026358 -0.055791 0.119288
					CHANNELS 3 Zrotation Yrotation Xrotation
					End Site
					{
						OFFSET 0.000000 0.000000 0.000000
					}
				}
			}
		}
	}
	JOINT RightUpLeg
	{
		OFFSET -0.067670 -0.090522 -0.004320
		CHANNELS 3 Zrotation Yrotation Xrotation
		JOINT RightLeg
		{
			OFFSET -0.038290 -0.382569 -0.008850
			CHANNELS 3 Zrotation Yrotation Xrotation
			JOINT RightFoot
			{
				OFFSET 0.015774 -0.398415 -0.042312
				CHANNELS 3 Zrotation Yrotation Xrotation
				JOINT RightToe
				{
					OFFSET -0.025372 -0.048144 0.123348
					CHANNELS 3 Zrotation Yrotation Xrotation
					End Site
					{
						OFFSET 0.000000 0.000000 0.000000
					}
				}
			}
		}
	}
	JOINT Spine
	{
		OFFSET -0.002533 0.108963 -0.026696
		CHANNELS 3 Zrotation Yrotation Xrotation
		JOINT Spine1
		{
			OFFSET 0.005487 0.135180 0.001092
			CHANNELS 3 Zrotation Yrotation Xrotation
			JOINT Spine2
			{
				OFFSET 0.001457 0.052922 0.025425
				CHANNELS 3 Zrotation Yrotation Xrotation
				JOINT Neck
				{
					OFFSET -0.002778 0.213870 -0.042857
					CHANNELS 3 Zrotation Yrotation Xrotation
					JOINT Head
					{
						OFFSET 0.005152 0.064970 0.051349
						CHANNELS 3 Zrotation Yrotation Xrotation
						End Site
						{
							OFFSET 0.000000 0.000000 0.000000
						}
					}
				}
				JOINT LeftShoulder
				{
					OFFSET 0.078845 0.121749 -0.034090
					CHANNELS 3 Zrotation Yrotation Xrotation
					JOINT LeftArm
					{
						OFFSET 0.090977 0.030469 -0.008868
						CHANNELS 3 Zrotation Yrotation Xrotation
						JOINT LeftForeArm
						{
							OFFSET 0.259612 -0.012772 -0.027456
							CHANNELS 3 Zrotation Yrotation Xrotation
							JOINT LeftHand
							{
								OFFSET 0.249234 0.008986 -0.001171
								CHANNELS 3 Zrotation Yrotation Xrotation
								End Site
								{
									OFFSET 0.000000 0.000000 0.000000
								}
							}
						}
					}
				}
				JOINT RightShoulder
				{
					OFFSET -0.081759 0.118833 -0.038615
					CHANNELS 3 Zrotation Yrotation Xrotation
					JOINT RightArm
					{
						OFFSET -0.096012 0.032551 -0.009143
						CHANNELS 3 Zrotation Yrotation Xrotation
						JOINT RightForeArm
						{
							OFFSET -0.253742 -0.013329 -0.021401
							CHANNELS 3 Zrotation Yrotation Xrotation
							JOINT RightHand
							{
								OFFSET -0.255298 0.007772 -0.005559
								CHANNELS 3 Zrotation Yrotation Xrotation
								End Site
								{
									OFFSET 0.000000 0.000000 0.000000
								}
							}
						}
					}
				}
			}
		}
	}
}
MOTION
Frames: 10
Frame Time: 0.050000
0.000000 0.943843 0.000000 -0.694648 -0.769780 5.831089 6.179938 -0.308200 -4.407867 1.387571 -0.058983 -2.006136 1.818261 7.589576 12.450522 0.000000 0.000000 0.000000 -3.270929 0.500969 -5.266615 -3.395698 0.178754 -2.446453 10.081710 15.502394 11.355900 0.000000 0.000000 0.000000 5.040913 0.004889 -1.658006 -2.714548 1.267695 -1.953361 -3.874336 4.359595 -2.624967 6.497944 -3.792548 -6.505100 0.000000 0.000000 0.000000 -20.156278 -2.809217 -1.973407 -51.465027 -2.428979 -4.114269 -7.627639 -14.273101 1.327067 0.000000 0.000000 0.000000 20.306430 -3.646020 -2.929402 58.542122 3.212794 -3.441277 5.966549 16.894611 1.395745 0.000000 0.000000 0.000000 
0.000525 0.942902 -0.000085 -0.822344 -1.320287 6.330489 6.370983 -0.287201 -3.924640 1.166129 0.031300 -3.606785 2.074887 7.967356 12.607602 0.000000 0.000000 0.000000 -3.288892 0.571079 -6.147570 -3.269439 0.192815 -2.034380 10.236406 15.910771 11.177132 0.000000 0.000000 0.000000 5.974453 -0.000612 -1.790468 -3.579895 1.638603 -2.810561 -4.487772 4.924971 -2.800867 6.845982 -3.836111 -7.426049 0.000000 0.000000 0.000000 -20.678913 -2.493197 -2.338994 -50.341807 -2.260904 -4.007292 -8.579580 -14.279775 1.432569 0.000000 0.000000 0.000000 20.828819 -4.785963 -3.529225 58.984516 2.845139 -3.628961 6.494130 16.426771 1.427419 0.000000 0.000000 0.000000 
0.000805 0.943176 -0.000268 -0.557100 -0.748128 5.996141 6.183920 -0.306113 -4.303862 1.031862 -0.002789 -2.553866 1.807018 7.554731 12.378829 0.000000 0.000000 0.000000 -3.596694 0.566125 -6.238757 -3.187763 0.256839 -1.040697 9.847796 15.521036 10.734180 0.000000 0.000000 0.000000 5.455503 -0.031647 -1.332440 -2.817789 1.299059 -4.525017 -4.899652 4.722301 -1.811246 6.905270 -4.072772 -6.512680 0.000000 0.000000 0.000000 -20.478439 -2.716768 -2.196381 -50.313971 -1.769087 -4.300098 -8.303161 -13.914662 1.367709 0.000000 0.000000 0.000000 21.807747 -3.695119 -2.902838 57.538862 2.624091 -3.835008 6.587010 16.112144 1.414750 0.000000 0.000000 0.000000 
0.001037 0.943211 -0.000326 -0.557931 -0.418711 6.416038 6.513163 -0.323233 -4.621416 0.487884 0.059612 -2.942281 1.630922 7.333862 12.483927 0.000000 0.000000 0.000000 -3.715264 0.619840 -7.035747 -2.969263 0.284470 -0.328732 9.617402 15.219031 10.567654 0.000000 0.000000 0.000000 5.392559 -0.032926 -1.405765 -3.081208 1.414878 -4.139786 -4.387805 3.905995 -3.229958 6.628934 -4.028944 -5.661214 0.000000 0.000000 0.000000 -20.366271 -1.812274 -2.518006 -50.965522 -1.941688 -4.209059 -7.793745 -13.926959 1.313424 0.000000 0.000000 0.000000 20.257015 -3.886195 -3.114191 58.369152 1.909794 -3.979750 7.721732 16.245673 1.542973 0.000000 0.000000 0.000000 
0.001160 0.943977 -0.000447 -0.431161 0.171738 6.298091 6.348370 -0.341047 -4.865482 0.601622 0.035011 -2.535306 1.308813 6.910939 12.561905 0.000000 0.000000 0.000000 -3.859888 0.602622 -6.918563 -2.883427 0.292392 -0.122380 9.374197 14.741095 10.613794 0.000000 0.000000 0.000000 5.076757 -0.026613 -1.417241 -2.394544 1.129671 -3.984898 -4.677708 3.570154 -3.474068 6.413990 -3.834750 -5.828382 0.000000 0.000000 0.000000 -20.258248 -1.668019 -2.606880 -51.137414 -2.384757 -4.019009 -8.103140 -13.833809 1.337231 0.000000 0.000000 0.000000 19.891756 -3.913798 -3.082148 58.296069 1.631138 -4.072106 8.281820 16.662176 1.662579 0.000000 0.000000 0.000000 
0.001293 0.944523 -0.000490 -0.393646 0.424216 6.475287 6.509938 -0.351360 -5.062471 0.267460 0.067400 -2.639735 1.144292 6.728400 12.752965 0.000000 0.000000 0.000000 -3.872786 0.613553 -7.096755 -2.915998 0.299983 -0.071402 9.285594 14.489955 10.739679 0.000000 0.000000 0.000000 4.865076 -0.033654 -1.333265 -2.243997 1.069166 -4.380598 -4.582727 3.393545 -3.655573 6.638079 -4.000796 -5.758372 0.000000 0.000000 0.000000 -20.407792 -1.446122 -2.738731 -50.995320 -2.251080 -4.040579 -8.216773 -14.174455 1.383246 0.000000 0.000000 0.000000 19.530909 -3.930246 -3.080100 58.395916 1.293011 -4.202269 8.718301 16.689637 1.718568 0.000000 0.000000 0.000000 
0.001390 0.945058 -0.000541 -0.333611 0.732677 6.461902 6.297074 -0.368029 -5.316950 0.556574 0.030165 -2.292163 0.983075 6.526437 12.807726 0.000000 0.000000 0.000000 -3.766255 0.614921 -7.119786 -3.186718 0.341038 0.096947 9.146230 14.222405 10.756399 0.000000 0.000000 0.000000 4.739052 -0.041720 -1.214460 -2.076587 1.001903 -4.327315 -4.671478 2.971143 -3.760906 6.767779 -4.038013 -6.046361 0.000000 0.000000 0.000000 -20.313226 -1.206857 -2.792228 -50.874504 -2.210654 -4.052123 -9.070662 -15.154508 1.591499 0.000000 0.000000 0.000000 19.578908 -3.773044 -3.055156 58.156773 1.110731 -4.261348 8.925414 17.040655 1.780804 0.000000 0.000000 0.000000 
0.001551 0.945494 -0.000535 -0.244025 1.156530 6.707060 6.053715 -0.400290 -5.814190 0.858444 -0.004987 -2.050619 0.773183 6.268970 12.887852 0.000000 0.000000 0.000000 -3.779863 0.613895 -7.132094 -3.303224 0.334187 -0.211342 8.981117 13.839009 10.883097 0.000000 0.000000 0.000000 4.465975 -0.040358 -1.225122 -1.823720 0.901235 -4.535858 -4.759765 2.890288 -3.931763 6.795890 -4.038803 -6.082828 0.000000 0.000000 0.000000 -19.902125 -1.173026 -2.792011 -50.984654 -2.475855 -3.937896 -9.995562 -15.722576 1.766684 0.000000 0.000000 0.000000 19.335890 -3.976126 -3.107030 58.169074 0.878621 -4.345122 9.215864 17.167647 1.839668 0.000000 0.000000 0.000000 
0.001699 0.945754 -0.000445 -0.200687 1.208021 6.773605 5.856496 -0.412685 -5.985045 1.110626 -0.034015 -1.887616 0.746370 6.247598 12.934641 0.000000 0.000000 0.000000 -3.740373 0.610663 -7.066060 -3.469417 0.336246 -0.430359 8.983087 13.770682 10.990304 0.000000 0.000000 0.000000 4.315230 -0.050073 -1.074543 -1.721061 0.863471 -4.953555 -4.703234 2.967824 -3.765116 6.791308 -4.007327 -6.235291 0.000000 0.000000 0.000000 -19.688302 -1.185948 -2.765486 -51.116562 -2.684270 -3.881276 -10.680292 -16.421767 1.937273 0.000000 0.000000 0.000000 19.370017 -4.065316 -3.133918 57.796159 0.806393 -4.373047 9.372885 17.458979 1.902488 0.000000 0.000000 0.000000 
0.001827 0.946009 -0.000260 -0.129178 1.499419 6.823483 5.747828 -0.430161 -6.243956 1.190355 -0.052474 -1.614791 0.603214 6.057481 12.934423 0.000000 0.000000 0.000000 -3.772772 0.616516 -7.201854 -3.522423 0.362585 -0.156490 8.824665 13.529867 10.923574 0.000000 0.000000 0.000000 4.275240 -0.059830 -0.954720 -1.742366 0.877937 -5.160761 -4.737650 2.966632 -3.674091 6.900609 -3.947871 -6.912146 0.000000 0.000000 0.000000 -19.282856 -1.168834 -2.744590 -51.252497 -3.098112 -3.732901 -11.543200 -16.855694 2.104412 0.000000 0.000000 0.000000 19.466922 -4.002386 -3.063180 57.459489 0.938781 -4.305237 9.261762 17.645594 1.918265 0.000000 0.000000 0.000000 
